<svg data-v-423bf9ae="" xmlns="http://www.w3.org/2000/svg" viewBox="0 0 312.2764786795048 60" class="font"><!----><!----><!----><g data-v-423bf9ae="" id="00793d48-0c53-44a2-9504-73743fce1cc8" fill="white" transform="matrix(5.281980514526367,0,0,5.281980514526367,-5.488296031951904,-17.7028865814209)"><path d="M1.04 3.88L1.04 14.55L2.35 14.55L2.35 6.45L6.20 14.55L7.59 14.55L7.59 3.88L6.27 3.88L6.27 12.08L2.45 3.88ZM10.89 6.24L9.60 6.24L9.60 14.55L10.89 14.55ZM10.91 3.35L9.59 3.35L9.59 4.70L10.91 4.70ZM17.18 11.84L17.18 11.96C17.18 12.98 16.79 13.58 15.57 13.58C14.34 13.58 13.94 12.95 13.94 11.51L13.94 9.24C13.94 7.76 14.39 7.22 15.60 7.22C16.77 7.22 17.15 7.77 17.15 8.78L17.15 8.90L18.40 8.90L18.40 8.76C18.40 6.99 17.57 6.08 15.60 6.08C13.64 6.08 12.66 6.97 12.66 9.25L12.66 11.51C12.66 13.80 13.58 14.71 15.55 14.71C17.58 14.71 18.42 13.76 18.42 11.94L18.42 11.84ZM26.07 6.24L24.51 6.24L22.16 9.51L21.36 9.51L21.36 3.74L20.08 3.74L20.08 14.55L21.36 14.55L21.36 10.65L22.16 10.65L24.88 14.55L26.49 14.55L23.23 10.02ZM34.19 11.38C34.19 9.97 33.45 9.21 32.61 8.90C33.32 8.61 33.77 7.91 33.77 6.76L33.77 6.57C33.75 4.40 32.56 3.88 30.48 3.88L27.75 3.88L27.75 14.55L30.80 14.55C33.14 14.55 34.19 13.73 34.19 11.65ZM32.86 11.65C32.86 12.92 32.38 13.48 30.93 13.48L29.02 13.48L29.02 9.59L30.73 9.59C32.14 9.59 32.86 10.02 32.86 11.48ZM29.02 4.94L30.51 4.94C31.75 4.94 32.49 5.19 32.49 6.69L32.49 6.80C32.49 8.01 32.03 8.55 30.70 8.55L29.02 8.55ZM38.29 13.47C37.30 13.50 37.04 13.30 37.04 11.97L37.04 3.74L35.76 3.74L35.76 11.90C35.76 13.99 36.20 14.81 38.29 14.60ZM43.90 14.55L45.05 14.55L45.05 8.83C45.05 6.79 44.06 6.08 42.36 6.08C40.47 6.08 39.56 6.90 39.56 8.79L40.74 8.79C40.74 7.53 41.30 7.14 42.31 7.14C43.36 7.14 43.82 7.67 43.82 8.90L43.82 9.93C43.43 9.87 42.85 9.83 42.48 9.83C40.25 9.83 39.31 10.64 39.31 12.38C39.31 13.94 40.25 14.71 41.75 14.71C42.63 14.71 43.41 14.43 43.86 13.78ZM43.82 11.80C43.82 13.03 42.98 13.65 42.03 13.65C41.08 13.65 40.60 13.19 40.60 12.26C40.60 11.28 41.10 10.81 42.52 10.81C42.85 10.81 43.44 10.85 43.82 10.91ZM46.91 6.24L46.91 14.55L48.20 14.55L48.20 8.89C48.20 7.77 48.85 7.21 49.81 7.21C51.02 7.21 51.38 7.81 51.38 9.17L51.38 14.55L52.67 14.55L52.67 9.06C52.67 7.11 52.01 6.08 50.08 6.08C49.20 6.08 48.51 6.36 48.10 6.87L48.03 6.24ZM59.04 14.55L60.16 14.55L60.16 3.74L58.87 3.74L58.87 6.79C58.49 6.36 57.79 6.08 56.99 6.08C55.52 6.08 54.35 6.96 54.35 9.21L54.35 11.51C54.35 13.59 55.17 14.71 56.87 14.71C57.88 14.71 58.59 14.41 58.95 13.87ZM58.87 11.91C58.87 13.03 58.23 13.58 57.23 13.58C56.11 13.58 55.64 12.92 55.64 11.54L55.64 9.28C55.64 7.74 56.27 7.21 57.26 7.21C58.17 7.21 58.87 7.69 58.87 9.03Z"></path></g><!----><!----></svg>